<svg width="166" height="176" viewBox="0 0 166 176" fill="none" xmlns="http://www.w3.org/2000/svg">
<path d="M80.5141 0.568477L1.70288 38.6154C0.714602 39.0925 0.0869141 40.0928 0.0869141 41.1901V134.81C0.0869141 135.907 0.714945 136.907 1.70288 137.384L80.5141 175.431C82.0847 176.19 83.9155 176.19 85.4861 175.431L164.297 137.384C165.286 136.907 165.913 135.907 165.913 134.81V41.1901C165.913 40.0928 165.285 39.0925 164.297 38.6154L85.4861 0.568477C83.9155 -0.189492 82.0847 -0.189492 80.5141 0.568477Z" fill="#FFE17D"/>
<path d="M0.56232 39.625C0.261883 40.0825 0.0869141 40.6212 0.0869141 41.1901V134.81C0.0869141 135.907 0.714945 136.907 1.70288 137.384L80.5141 175.431C81.2992 175.81 82.1497 176 83.0001 176V79.4227L0.56232 39.625Z" fill="#FFC350"/>
<path d="M165.438 39.625C165.738 40.0825 165.913 40.6212 165.913 41.1901V134.81C165.913 135.907 165.285 136.907 164.297 137.384L85.486 175.431C84.7009 175.81 83.8504 176 83 176V79.4227L165.438 39.625Z" fill="#FFD164"/>
<path d="M23.6709 129.819C23.255 129.819 22.8304 129.727 22.4313 129.535L10.2636 123.66C8.83982 122.974 8.24513 121.265 8.93194 119.844C9.616 118.423 11.3303 117.831 12.7486 118.512L24.9163 124.387C26.3401 125.074 26.9348 126.782 26.248 128.203C25.7568 129.225 24.7348 129.819 23.6709 129.819Z" fill="#FFE17D"/>
<path d="M34.8701 122.53C34.4541 122.53 34.0296 122.437 33.6305 122.245L10.2802 110.973C8.85919 110.287 8.26175 108.578 8.94856 107.157C9.63262 105.738 11.3497 105.144 12.7652 105.825L36.1151 117.097C37.5362 117.783 38.1336 119.492 37.4468 120.913C36.9559 121.935 35.934 122.53 34.8701 122.53Z" fill="#FFF6D8"/>
<path d="M137.501 53.0655L54.7738 13.1001L32.9663 23.6704L115.879 63.6977L137.501 53.0655Z" fill="#FF8087"/>
<path d="M115.879 63.6978V94.7064C115.879 95.7603 116.981 96.452 117.931 95.9937L135.885 87.3261C136.874 86.849 137.501 85.8487 137.501 84.7514V53.0659L115.879 63.6978Z" fill="#E6646E"/>
</svg>
