<svg width="176" height="108" viewBox="0 0 176 108" fill="none" xmlns="http://www.w3.org/2000/svg">
<path d="M143.775 51.6287L139.305 15.3107L130.927 16.3419L130.93 16.3361L114.688 7.19544C112.956 6.22057 110.967 5.79638 108.988 5.97926L83.342 8.35112C80.1895 8.64262 77.3724 10.4415 75.7819 13.1791L57.7062 44.2911C56.3715 46.5884 57.4192 49.5346 59.9049 50.4734L60.6443 50.7525C62.0667 51.2898 63.5287 51.6009 64.9899 51.7226L62.6995 53.7174L58.1174 57.7097L45.0848 68.8265C42.7649 70.8474 42.5239 74.3639 44.5448 76.6839L45.8669 78.1981C48.4622 81.1743 52.9794 81.4833 55.961 78.8873L60.9419 84.6004C62.5613 86.4601 64.9339 87.2827 67.2133 87.0022C68.5831 86.8338 69.9196 86.2659 71.0358 85.2896L76.0112 91.0031C77.6364 92.8676 80.0087 93.6847 82.288 93.4042C83.6579 93.2354 84.9947 92.673 86.1112 91.6971L88.8151 94.0339C91.4111 97.0153 95.9335 97.3236 98.9152 94.7276L102.591 91.5208L133.493 67.4542L133.526 67.4237L145.718 67.4116L143.775 51.6287Z" fill="#F29F5C"/>
<path d="M130.532 58.0672L130.499 58.0978L99.5972 82.1644L95.9215 85.3712C92.9401 87.9672 88.4174 87.6588 85.8214 84.6775L83.1175 82.3407C82.001 83.3166 80.6638 83.8793 79.2943 84.0478C77.0149 84.3283 74.6431 83.5112 73.0175 81.6467L68.0421 75.9332C66.9256 76.9091 65.5891 77.477 64.2196 77.6458C61.9402 77.9263 59.5676 77.104 57.9482 75.244L52.9673 69.5309C50.4146 71.7536 46.7393 71.8402 44.1051 69.9527C42.7542 71.9897 42.8621 74.7507 44.5462 76.684L45.8682 78.1982C48.4635 81.1744 52.9807 81.4834 55.9624 78.8874L60.9433 84.6005C62.5627 86.4602 64.9353 87.2828 67.2147 87.0023C68.5845 86.8338 69.9207 86.266 71.0372 85.2897L76.0126 91.0035C77.6378 92.868 80.01 93.6851 82.2894 93.4046C83.6593 93.2358 84.9961 92.6734 86.1126 91.6975L88.8165 94.0343C91.4125 97.0157 95.9349 97.324 98.9165 94.728L102.592 91.5212L133.494 67.4547L133.527 67.4241L145.719 67.412L144.37 56.4547L130.532 58.0672Z" fill="#D37D42"/>
<path d="M136.159 73.7764L119.603 59.5005L114.999 55.5337L111.704 52.6964L97.5392 40.4864L99.1751 26.5611C99.7286 21.8514 96.7637 17.4422 92.1933 16.1775L61.316 7.63366C58.049 6.7296 54.5961 8.24553 53.0506 11.2626L49.1676 18.8423L32.4999 17.711L28.2306 54.0535L26.375 69.847L42.5993 70.926L42.6329 70.9566L76.5272 100.173L80.2208 103.359C83.2166 105.939 87.7372 105.605 90.3167 102.61L95.2598 96.8739C96.3815 97.8436 97.7218 98.3988 99.0926 98.56C101.373 98.8281 103.741 97.9976 105.356 96.1242L110.3 90.3832C111.422 91.353 112.761 91.9136 114.132 92.0745C116.413 92.3426 118.781 91.507 120.39 89.638L125.339 83.8974C128.335 86.4769 132.85 86.1428 135.429 83.1522L136.743 81.6304C138.751 79.2998 138.49 75.7846 136.159 73.7764Z" fill="#F9C295"/>
<path d="M136.159 73.7766L131.116 69.4282C132.755 71.6017 132.721 74.6938 130.871 76.8408L129.477 78.4561C126.739 81.6306 121.946 81.9854 118.766 79.2471L113.512 85.341C111.804 87.3248 109.29 88.2117 106.869 87.9274C105.413 87.7566 103.991 87.1615 102.801 86.132L97.5523 92.2267C95.838 94.2153 93.3249 95.0966 90.9035 94.8124C89.4484 94.6415 88.0256 94.052 86.8349 93.0225L81.5872 99.1116C80.5986 100.26 79.3395 101.034 77.9868 101.433L80.2208 103.36C83.2166 105.94 87.7372 105.606 90.3167 102.61L95.2598 96.8745C96.3815 97.8442 97.7218 98.3994 99.0926 98.5606C101.373 98.8284 103.741 97.9982 105.356 96.1248L110.3 90.3838C111.422 91.3536 112.761 91.9142 114.132 92.0751C116.413 92.3432 118.781 91.5076 120.39 89.6386L125.339 83.898C128.335 86.4775 132.85 86.1434 135.429 83.1527L136.743 81.631C138.751 79.3 138.49 75.7848 136.159 73.7766Z" fill="#E59F6A"/>
<path d="M127.015 81.9864L117.943 74.164C116.865 73.2345 115.237 73.3548 114.307 74.4332C113.377 75.5115 113.498 77.1395 114.576 78.0693L123.632 85.8779L125.339 83.8979C126.02 84.4847 126.782 84.9127 127.58 85.2011C128.169 84.153 127.96 82.8014 127.015 81.9864Z" fill="#E59F6A"/>
<path d="M112.51 91.6838C113.131 90.6302 112.932 89.2521 111.973 88.4251L103.823 81.3985C102.745 80.469 101.117 80.5893 100.187 81.6677C99.2573 82.746 99.3779 84.374 100.456 85.3038L108.606 92.3304C108.609 92.3331 108.613 92.3355 108.616 92.3383L110.3 90.383C110.971 90.9636 111.722 91.3944 112.51 91.6838Z" fill="#E59F6A"/>
<path d="M43.4446 70.8897L41.4808 73.4829C39.3423 76.3068 39.8978 80.3297 42.7217 82.4685C45.5456 84.607 49.5685 84.0515 51.7073 81.2276L53.6711 78.6343C55.8096 75.8104 55.2541 71.7875 52.4302 69.6487C49.6063 67.5103 45.5831 68.0658 43.4446 70.8897Z" fill="#F29F5C"/>
<path d="M55.4057 76.3438L51.7073 81.2274C49.5689 84.0513 50.1244 88.0742 52.9483 90.213C55.7722 92.3515 59.795 91.796 61.9338 88.9721L65.6322 84.0884C67.7707 81.2645 67.2152 77.2416 64.3913 75.1028C61.5671 72.9644 57.5442 73.5199 55.4057 76.3438Z" fill="#F29F5C"/>
<path d="M66.9738 82.3166L61.9334 88.9722C59.7949 91.7961 60.3504 95.819 63.1743 97.9578C65.9982 100.096 70.0211 99.5408 72.1599 96.7169L77.2003 90.0612C79.3388 87.2373 78.7833 83.2144 75.9594 81.0756C73.1355 78.9368 69.1126 79.4927 66.9738 82.3166Z" fill="#F29F5C"/>
<path d="M77.4929 89.6748L72.16 96.7165C70.0215 99.5404 70.577 103.563 73.4009 105.702C76.2248 107.841 80.2477 107.285 82.3865 104.461L87.7194 97.4195C89.8579 94.5956 89.3024 90.5727 86.4785 88.4339C83.6542 86.2954 79.6313 86.8509 77.4929 89.6748Z" fill="#F29F5C"/>
<path d="M130.931 16.3361L114.688 7.19544C112.956 6.22057 110.968 5.79638 108.988 5.97926L83.3424 8.35112C80.1898 8.64262 77.3728 10.4415 75.7823 13.1791L57.7066 44.2911C56.3718 46.5887 57.4196 49.5346 59.9052 50.4734L60.6446 50.7525C67.2704 53.255 74.7531 51.1255 79.0682 45.5097L85.9937 36.4966C85.9937 36.4966 102.641 55.7716 120.97 33.2619" fill="#F29F5C"/>
<path d="M175.98 72.2681L167.485 3.26017C167.402 2.58161 167.052 1.9639 166.513 1.54315C165.974 1.1224 165.291 0.933338 164.612 1.01653L144.747 3.46196C139.588 4.0972 135.907 8.81137 136.542 13.9703L143.364 69.3826C143.951 74.1528 148.025 77.6587 152.714 77.6587C153.096 77.6587 153.483 77.6353 153.872 77.5876L173.737 75.1421C175.15 74.9679 176.154 73.6812 175.98 72.2681Z" fill="#5C9CEE"/>
<path d="M175.98 72.2682L175.048 64.6934C174.625 65.3138 173.95 65.7573 173.146 65.8563L152.323 68.4196C151.915 68.4698 151.509 68.4942 151.109 68.4942C147.602 68.4942 144.426 66.6235 142.668 63.7367L143.364 69.3824C143.951 74.1526 148.024 77.6585 152.713 77.6585C153.096 77.6585 153.483 77.6351 153.872 77.5873L173.736 75.1419C175.15 74.968 176.154 73.6813 175.98 72.2682Z" fill="#3580D3"/>
<path d="M31.2529 3.46158L11.3884 1.01615C10.7088 0.93262 10.0258 1.12203 9.48675 1.54278C8.94776 1.96352 8.59816 2.58124 8.51463 3.2598L0.0195716 72.268C-0.154365 73.6812 0.850412 74.9678 2.26322 75.1418L22.1278 77.5872C22.5169 77.635 22.9036 77.6583 23.2862 77.6583C27.9749 77.6583 32.049 74.1521 32.6362 69.3823L39.4575 13.97C40.0928 8.811 36.4122 4.09683 31.2529 3.46158Z" fill="#ED5575"/>
<path d="M0.0195769 72.2682L0.952167 64.6934C1.37498 65.3138 2.0501 65.7573 2.85378 65.8563L23.677 68.4196C24.0847 68.4698 24.4907 68.4942 24.8915 68.4942C28.3978 68.4942 31.5743 66.6235 33.3316 63.7367L32.6365 69.3824C32.0494 74.1526 27.9756 77.6585 23.2866 77.6585C22.9043 77.6585 22.5169 77.6351 22.1281 77.5873L2.26357 75.1419C0.850074 74.968 -0.15436 73.6813 0.0195769 72.2682Z" fill="#CC3A60"/>
<path d="M159.499 66.2023C162.252 66.2023 164.483 63.9711 164.483 61.2187C164.483 58.4663 162.252 56.235 159.499 56.235C156.747 56.235 154.516 58.4663 154.516 61.2187C154.516 63.9711 156.747 66.2023 159.499 66.2023Z" fill="#EBEEF2"/>
<path d="M16.2215 66.2023C18.9739 66.2023 21.2051 63.9711 21.2051 61.2187C21.2051 58.4663 18.9739 56.235 16.2215 56.235C13.4691 56.235 11.2378 58.4663 11.2378 61.2187C11.2378 63.9711 13.4691 66.2023 16.2215 66.2023Z" fill="#EBEEF2"/>
</svg>
