<svg width="173" height="141" viewBox="0 0 173 141" fill="none" xmlns="http://www.w3.org/2000/svg">
<path d="M104.036 1.86265C103.837 1.05073 103.109 0.479992 102.273 0.479493H70.9394C70.1025 0.478993 69.3735 1.05023 69.1732 1.86265L65.7153 15.8151H107.477L104.036 1.86265Z" fill="#F7BE56"/>
<path d="M73.7202 3.67529H77.4398V7.39485H73.7202V3.67529Z" fill="#3A556A"/>
<path d="M77.3438 7.29895H81.0633V11.0185H77.3438V7.29895Z" fill="#3A556A"/>
<path d="M81.0635 3.67529H84.783V7.39485H81.0635V3.67529Z" fill="#3A556A"/>
<path d="M84.6865 7.29895H88.4061V11.0185H84.6865V7.29895Z" fill="#3A556A"/>
<path d="M88.4092 3.67529H92.1287V7.39485H88.4092V3.67529Z" fill="#3A556A"/>
<path d="M92.0322 7.29895H95.7518V11.0185H92.0322V7.29895Z" fill="#3A556A"/>
<path d="M95.752 3.67529H99.4715V7.39485H95.752V3.67529Z" fill="#3A556A"/>
<path d="M145.278 105.723L157.993 105.647C160.417 105.633 162.394 107.586 162.408 110.01L162.559 135.259C162.573 137.683 160.62 139.66 158.196 139.674L145.481 139.75C143.057 139.765 141.08 137.811 141.066 135.388L140.915 110.138C140.901 107.714 142.854 105.737 145.278 105.723Z" fill="#2F4859"/>
<path d="M15.8735 106.493L28.5886 106.417C31.0124 106.403 32.9893 108.356 33.0038 110.78L33.1546 136.029C33.169 138.453 31.2156 140.43 28.7918 140.444L16.0768 140.52C13.653 140.535 11.6761 138.581 11.6616 136.158L11.5108 110.908C11.4963 108.484 13.4497 106.507 15.8735 106.493Z" fill="#2F4859"/>
<path d="M159.733 44.2264C158.671 44.3263 157.862 45.2241 157.873 46.2912C158.134 48.3729 156.801 50.3218 154.766 50.8331L151.602 50.8506L153.227 55.5903C153.227 55.5903 173.597 55.4695 172.987 48.7784C172.512 43.5793 163.672 43.8484 159.733 44.2264Z" fill="#2F4859"/>
<path d="M13.2668 44.2264C14.3294 44.3263 15.1378 45.2241 15.1268 46.2912C14.8662 48.3729 16.1994 50.3218 18.2342 50.8331L21.398 50.8506L19.7727 55.5903C19.7727 55.5903 -0.596748 55.4695 0.0134404 48.7784C0.48781 43.5793 9.32756 43.8484 13.2668 44.2264Z" fill="#2F4859"/>
<path d="M168.447 83.9475C168.066 78.9721 166.628 74.1356 164.229 69.7604L155.658 54.0173C155.658 54.0173 140.399 19.6585 134.046 16.9241C127.906 14.2812 88.7236 13.6934 86.1126 13.6515H85.9718C83.3732 13.7184 44.1883 14.7825 38.0799 17.4974C31.7618 20.3081 16.9201 54.8447 16.9201 54.8447L8.52222 70.6917C6.17434 75.0938 4.79318 79.9468 4.47161 84.9257C3.88139 95.9236 5.06632 106.945 7.98144 117.566C9.35362 122.574 13.928 126.03 19.1206 125.981L86.6384 125.581H86.7792L154.287 125.178C159.481 125.164 164.014 121.654 165.327 116.63C168.114 105.973 169.167 94.9384 168.447 83.9475Z" fill="#FCD462"/>
<path d="M53.6739 104.37L119.457 103.976C120.635 103.969 121.595 104.918 121.602 106.095L121.669 117.296C121.676 118.473 120.727 119.433 119.55 119.44L53.7668 119.834C52.5893 119.841 51.6296 118.893 51.6226 117.716L51.5552 106.515C51.5482 105.338 52.497 104.377 53.6739 104.37Z" fill="#3A556A"/>
<path d="M135.276 22.1083C134.591 20.6123 133.11 19.64 131.465 19.6061L86.4827 18.6848H86.3419L41.3722 20.1444C39.7299 20.2008 38.2638 21.1895 37.5957 22.691L24.6929 51.7149L86.5372 51.3444H86.678L148.522 50.9889L135.276 22.1083Z" fill="#2F4859"/>
<path d="M149.92 102.086C145.585 102.116 142.096 105.655 142.126 109.99C142.156 114.325 145.694 117.814 150.029 117.784C154.361 117.755 157.85 114.221 157.824 109.888C157.798 105.553 154.263 102.06 149.928 102.086C149.925 102.086 149.923 102.086 149.92 102.086Z" fill="#EBF0F3"/>
<path d="M23.853 102.837C19.5168 102.866 16.0244 106.405 16.0534 110.741C16.0824 115.077 19.6207 118.569 23.9569 118.54C28.2921 118.511 31.784 114.975 31.7565 110.639C31.7306 106.304 28.1958 102.811 23.8605 102.837C23.858 102.837 23.8555 102.837 23.853 102.837Z" fill="#EBF0F3"/>
<path d="M147.342 71.1831C134.35 72.8009 131.04 83.6735 130.181 88.8751C129.974 90.1614 130.85 91.3713 132.136 91.578C132.28 91.6015 132.427 91.6109 132.574 91.6069C138.167 91.5006 143.75 91.0677 149.293 90.3102C158.73 88.927 164.52 69.0444 147.342 71.1831Z" fill="#E1E6E9"/>
<path d="M148.463 75.2487C145.713 75.5009 143.688 77.9336 143.941 80.683C144.193 83.4323 146.626 85.4571 149.375 85.205C152.124 84.9528 154.149 82.5201 153.897 79.7707C153.897 79.7682 153.896 79.7662 153.896 79.7637C153.641 77.0174 151.21 74.9971 148.463 75.2487Z" fill="#BDBEC1"/>
<path d="M138.143 80.5591C136.054 80.7524 134.517 82.6024 134.71 84.6911C134.903 86.7804 136.754 88.3173 138.842 88.1241C140.931 87.9308 142.468 86.0813 142.275 83.9921C142.083 81.9043 140.236 80.3669 138.148 80.5586C138.147 80.5586 138.145 80.5586 138.143 80.5591Z" fill="#BDBEC1"/>
<path d="M25.8737 71.1831C38.8654 72.8009 42.175 83.6735 43.0324 88.8751C43.2386 90.1614 42.3632 91.3713 41.0775 91.578C40.9326 91.6015 40.7858 91.6109 40.639 91.6069C35.0455 91.5006 29.4629 91.0677 23.9203 90.3102C14.4848 88.927 8.69751 69.0444 25.8737 71.1831Z" fill="#E1E6E9"/>
<path d="M24.7519 75.2487C27.5012 75.5009 29.526 77.9336 29.2739 80.683C29.0217 83.4323 26.5889 85.4571 23.8396 85.205C21.0902 84.9528 19.0654 82.5201 19.3176 79.7707C19.3176 79.7682 19.3181 79.7662 19.3181 79.7637C19.5738 77.0174 22.005 74.9971 24.7519 75.2487Z" fill="#BDBEC1"/>
<path d="M35.0712 80.5589C37.16 80.7532 38.6959 82.6042 38.5017 84.6934C38.3074 86.7822 36.4564 88.3181 34.3672 88.1239C32.2795 87.9296 30.744 86.0801 30.9367 83.9924C31.1295 81.9031 32.9795 80.3662 35.0687 80.5589C35.0692 80.5584 35.0702 80.5584 35.0712 80.5589Z" fill="#BDBEC1"/>
<path d="M46.2822 77.3132L53.2225 91.6092H118.431L126.923 77.3132H46.2822Z" fill="#3A556A"/>
</svg>
